<svg width="24" height="24" viewBox="0 0 24 24" fill="none" xmlns="http://www.w3.org/2000/svg">
<path d="M17.007 19.9794V13.9446L21.5679 11.3407V17.3673L17.007 19.9794ZM2.51381 20.6836V14.657L7.06648 12.0531V18.0797L2.51381 20.6836ZM7.06648 3.16066V9.22817L2.51381 11.8239V5.80548L7.06648 3.16066ZM9.52296 11.8239L14.4933 14.0265V20.135L9.52296 17.9241V11.8239ZM9.52296 3.00508L14.4933 5.21593V11.3162L9.52296 9.10535V3.00508ZM21.5351 2.45648V8.48304L16.9743 11.0869V5.06035L21.5351 2.45648ZM23.9916 5.73179V2.45648C23.9916 1.80498 23.7328 1.18015 23.2722 0.719473C22.8115 0.258793 22.1866 3.36627e-07 21.5351 3.36627e-07C21.0963 -0.000224888 20.6649 0.112571 20.2823 0.327526L15.5823 3.02147L9.2773 0.221075C8.92289 0.0605183 8.53543 -0.0135586 8.14679 0.00494808C7.75815 0.0234547 7.37947 0.13402 7.04192 0.327526L1.2528 3.61103C0.872552 3.82961 0.556571 4.14446 0.336647 4.52394C0.116722 4.90342 0.000612549 5.33412 0 5.77272V20.6918C0 21.3433 0.258818 21.9681 0.719497 22.4287C1.18018 22.8894 1.80498 23.1482 2.45648 23.1482C2.89255 23.1474 3.3211 23.0346 3.70109 22.8207L8.40935 20.1268L14.7143 22.9353C15.0705 23.096 15.4598 23.1695 15.85 23.1495C16.2402 23.1296 16.62 23.0169 16.9579 22.8207L22.7634 19.5044C23.1434 19.287 23.4585 18.972 23.6758 18.5919C23.8932 18.2118 24.0051 17.7806 23.9998 17.3428L23.9916 5.73179Z" fill="#FF002E"/>
</svg>
